<?xml version="1.0" standalone="no"?>
<svg xmlns:xlink="http://www.w3.org/1999/xlink" id="wave" style="transform:rotate(0deg); transition: 0.3s" viewBox="0 0 1440 490" version="1.1" xmlns="http://www.w3.org/2000/svg"><defs><linearGradient id="sw-gradient-0" x1="0" x2="0" y1="1" y2="0"><stop stop-color="rgba(178.204, 237.203, 228.126, 1)" offset="0%"/><stop stop-color="rgba(235, 241, 255, 1)" offset="100%"/></linearGradient></defs><path style="transform:translate(0, 0px); opacity:1" fill="url(#sw-gradient-0)" d="M0,441L80,441C160,441,320,441,480,400.2C640,359,800,278,960,236.8C1120,196,1280,196,1440,204.2C1600,212,1760,229,1920,236.8C2080,245,2240,245,2400,245C2560,245,2720,245,2880,228.7C3040,212,3200,180,3360,187.8C3520,196,3680,245,3840,245C4000,245,4160,196,4320,204.2C4480,212,4640,278,4800,318.5C4960,359,5120,376,5280,334.8C5440,294,5600,196,5760,155.2C5920,114,6080,131,6240,130.7C6400,131,6560,114,6720,98C6880,82,7040,65,7200,49C7360,33,7520,16,7680,49C7840,82,8000,163,8160,212.3C8320,261,8480,278,8640,277.7C8800,278,8960,261,9120,212.3C9280,163,9440,82,9600,49C9760,16,9920,33,10080,106.2C10240,180,10400,310,10560,318.5C10720,327,10880,212,11040,179.7C11200,147,11360,196,11440,220.5L11520,245L11520,490L11440,490C11360,490,11200,490,11040,490C10880,490,10720,490,10560,490C10400,490,10240,490,10080,490C9920,490,9760,490,9600,490C9440,490,9280,490,9120,490C8960,490,8800,490,8640,490C8480,490,8320,490,8160,490C8000,490,7840,490,7680,490C7520,490,7360,490,7200,490C7040,490,6880,490,6720,490C6560,490,6400,490,6240,490C6080,490,5920,490,5760,490C5600,490,5440,490,5280,490C5120,490,4960,490,4800,490C4640,490,4480,490,4320,490C4160,490,4000,490,3840,490C3680,490,3520,490,3360,490C3200,490,3040,490,2880,490C2720,490,2560,490,2400,490C2240,490,2080,490,1920,490C1760,490,1600,490,1440,490C1280,490,1120,490,960,490C800,490,640,490,480,490C320,490,160,490,80,490L0,490Z"/><defs><linearGradient id="sw-gradient-1" x1="0" x2="0" y1="1" y2="0"><stop stop-color="rgba(139.251, 230.373, 216.354, 1)" offset="0%"/><stop stop-color="rgba(235, 241, 255, 1)" offset="100%"/></linearGradient></defs><path style="transform:translate(0, 50px); opacity:0.9" fill="url(#sw-gradient-1)" d="M0,343L80,359.3C160,376,320,408,480,375.7C640,343,800,245,960,171.5C1120,98,1280,49,1440,73.5C1600,98,1760,196,1920,212.3C2080,229,2240,163,2400,114.3C2560,65,2720,33,2880,81.7C3040,131,3200,261,3360,277.7C3520,294,3680,196,3840,147C4000,98,4160,98,4320,114.3C4480,131,4640,163,4800,171.5C4960,180,5120,163,5280,196C5440,229,5600,310,5760,310.3C5920,310,6080,229,6240,212.3C6400,196,6560,245,6720,220.5C6880,196,7040,98,7200,98C7360,98,7520,196,7680,204.2C7840,212,8000,131,8160,138.8C8320,147,8480,245,8640,294C8800,343,8960,343,9120,326.7C9280,310,9440,278,9600,245C9760,212,9920,180,10080,155.2C10240,131,10400,114,10560,114.3C10720,114,10880,131,11040,163.3C11200,196,11360,245,11440,269.5L11520,294L11520,490L11440,490C11360,490,11200,490,11040,490C10880,490,10720,490,10560,490C10400,490,10240,490,10080,490C9920,490,9760,490,9600,490C9440,490,9280,490,9120,490C8960,490,8800,490,8640,490C8480,490,8320,490,8160,490C8000,490,7840,490,7680,490C7520,490,7360,490,7200,490C7040,490,6880,490,6720,490C6560,490,6400,490,6240,490C6080,490,5920,490,5760,490C5600,490,5440,490,5280,490C5120,490,4960,490,4800,490C4640,490,4480,490,4320,490C4160,490,4000,490,3840,490C3680,490,3520,490,3360,490C3200,490,3040,490,2880,490C2720,490,2560,490,2400,490C2240,490,2080,490,1920,490C1760,490,1600,490,1440,490C1280,490,1120,490,960,490C800,490,640,490,480,490C320,490,160,490,80,490L0,490Z"/><defs><linearGradient id="sw-gradient-2" x1="0" x2="0" y1="1" y2="0"><stop stop-color="rgba(138.093, 214.435, 202.69, 1)" offset="0%"/><stop stop-color="rgba(235, 241, 255, 1)" offset="100%"/></linearGradient></defs><path style="transform:translate(0, 100px); opacity:0.8" fill="url(#sw-gradient-2)" d="M0,196L80,220.5C160,245,320,294,480,294C640,294,800,245,960,236.8C1120,229,1280,261,1440,277.7C1600,294,1760,294,1920,285.8C2080,278,2240,261,2400,253.2C2560,245,2720,245,2880,204.2C3040,163,3200,82,3360,49C3520,16,3680,33,3840,89.8C4000,147,4160,245,4320,302.2C4480,359,4640,376,4800,383.8C4960,392,5120,392,5280,359.3C5440,327,5600,261,5760,204.2C5920,147,6080,98,6240,98C6400,98,6560,147,6720,155.2C6880,163,7040,131,7200,130.7C7360,131,7520,163,7680,147C7840,131,8000,65,8160,106.2C8320,147,8480,294,8640,359.3C8800,425,8960,408,9120,400.2C9280,392,9440,392,9600,383.8C9760,376,9920,359,10080,351.2C10240,343,10400,343,10560,326.7C10720,310,10880,278,11040,228.7C11200,180,11360,114,11440,81.7L11520,49L11520,490L11440,490C11360,490,11200,490,11040,490C10880,490,10720,490,10560,490C10400,490,10240,490,10080,490C9920,490,9760,490,9600,490C9440,490,9280,490,9120,490C8960,490,8800,490,8640,490C8480,490,8320,490,8160,490C8000,490,7840,490,7680,490C7520,490,7360,490,7200,490C7040,490,6880,490,6720,490C6560,490,6400,490,6240,490C6080,490,5920,490,5760,490C5600,490,5440,490,5280,490C5120,490,4960,490,4800,490C4640,490,4480,490,4320,490C4160,490,4000,490,3840,490C3680,490,3520,490,3360,490C3200,490,3040,490,2880,490C2720,490,2560,490,2400,490C2240,490,2080,490,1920,490C1760,490,1600,490,1440,490C1280,490,1120,490,960,490C800,490,640,490,480,490C320,490,160,490,80,490L0,490Z"/></svg>